<svg width="24" height="24" viewBox="0 0 24 24" fill="none" xmlns="http://www.w3.org/2000/svg">
<path d="M16.3289 4.37941C15.9656 4.37941 15.6172 4.52374 15.3603 4.78064C15.1034 5.03755 14.9591 5.38598 14.9591 5.7493V20.955C14.959 21.0772 14.9263 21.1971 14.8642 21.3024C14.8022 21.4077 14.7131 21.4945 14.6063 21.5537C14.4994 21.613 14.3786 21.6426 14.2565 21.6394C14.1343 21.6363 14.0152 21.6005 13.9116 21.5358L9.47953 18.7632L5.0475 21.5331C4.94403 21.5976 4.82519 21.6334 4.70327 21.6367C4.58135 21.6399 4.46077 21.6106 4.35399 21.5517C4.2472 21.4927 4.15809 21.4063 4.09586 21.3015C4.03363 21.1966 4.00054 21.077 4 20.955V5.7493C4 4.65935 4.43298 3.61404 5.20369 2.84334C5.9744 2.07263 7.0197 1.63965 8.10965 1.63965H16.3289C17.4189 1.63965 18.4642 2.07263 19.2349 2.84334C20.0056 3.61404 20.4386 4.65935 20.4386 5.7493V9.174C20.4386 9.35566 20.3664 9.52988 20.238 9.65833C20.1095 9.78678 19.9353 9.85894 19.7536 9.85894H14.9591" stroke="black" stroke-width="2" stroke-linecap="round" stroke-linejoin="round"/>
</svg>
