<svg width="12" height="10" viewBox="0 0 12 10" fill="none" xmlns="http://www.w3.org/2000/svg">
<path d="M4.36679 9.44908C4.00758 9.44908 3.66736 9.3121 3.44936 9.07592L0.498903 5.89025C0.407684 5.79187 0.341088 5.67976 0.302922 5.56033C0.264757 5.4409 0.25577 5.3165 0.276477 5.19423C0.297183 5.07197 0.347176 4.95423 0.423598 4.84776C0.50002 4.74129 0.601372 4.64818 0.72186 4.57374C0.842305 4.49899 0.979618 4.4444 1.12593 4.41309C1.27224 4.38179 1.42468 4.37438 1.57449 4.39131C1.72431 4.40823 1.86857 4.44915 1.999 4.51172C2.12943 4.57429 2.24347 4.65728 2.33458 4.75593L4.27595 6.85047L9.15705 0.445384C9.31893 0.233905 9.57684 0.0835268 9.87422 0.0272339C10.1716 -0.0290589 10.4842 0.0133304 10.7433 0.145104C11.2826 0.419068 11.4485 0.999385 11.1116 1.4407L5.34449 9.00507C5.24604 9.13478 5.11034 9.24289 4.94917 9.32003C4.788 9.39717 4.60623 9.44101 4.41963 9.44773C4.40147 9.44908 4.38495 9.44908 4.36679 9.44908Z" fill="#181059"/>
</svg>
