<svg width="24" height="24" viewBox="0 0 24 24" fill="none" xmlns="http://www.w3.org/2000/svg">
<path d="M10.7076 3.13713C10.8708 3.3183 11.0702 3.46316 11.293 3.56232C11.5158 3.66147 11.7569 3.71271 12.0008 3.71271C12.2446 3.71271 12.4858 3.66147 12.7086 3.56232C12.9313 3.46316 13.1308 3.3183 13.294 3.13713L14.1354 2.2139C14.3766 1.94702 14.6944 1.76131 15.0453 1.68225C15.3962 1.6032 15.7629 1.63468 16.0952 1.77237C16.4275 1.91006 16.7091 2.14722 16.9012 2.45129C17.0933 2.75536 17.1867 3.11144 17.1684 3.47066L17.1052 4.71586C17.093 4.95877 17.1318 5.20155 17.2191 5.42855C17.3064 5.65555 17.4403 5.86174 17.6122 6.03385C17.7841 6.20595 17.9901 6.34015 18.2169 6.4278C18.4438 6.51545 18.6865 6.55461 18.9294 6.54275L20.1746 6.4796C20.5336 6.4619 20.8893 6.55566 21.1929 6.74802C21.4966 6.94038 21.7333 7.22193 21.8706 7.55409C22.008 7.88624 22.0392 8.25275 21.9601 8.60336C21.881 8.95398 21.6954 9.27155 21.4287 9.51255L20.502 10.3486C20.321 10.5121 20.1764 10.7117 20.0773 10.9345C19.9783 11.1573 19.9272 11.3985 19.9272 11.6423C19.9272 11.8861 19.9783 12.1273 20.0773 12.3501C20.1764 12.5729 20.321 12.7725 20.502 12.936L21.4287 13.772C21.6956 14.0132 21.8813 14.331 21.9604 14.6819C22.0394 15.0328 22.008 15.3996 21.8703 15.7318C21.7326 16.0641 21.4954 16.3457 21.1914 16.5378C20.8873 16.7299 20.5312 16.8233 20.172 16.805L18.9268 16.7418C18.6833 16.7293 18.44 16.768 18.2124 16.8555C17.9849 16.943 17.7783 17.0772 17.6059 17.2496C17.4335 17.422 17.2992 17.6286 17.2118 17.8562C17.1243 18.0837 17.0856 18.3271 17.0981 18.5705L17.1613 19.8157C17.1772 20.1731 17.0827 20.5268 16.8906 20.8286C16.6986 21.1305 16.4182 21.3659 16.0877 21.5029C15.7572 21.6398 15.3925 21.6718 15.0433 21.5943C14.694 21.5168 14.377 21.3337 14.1354 21.0698L13.2985 20.1439C13.1351 19.963 12.9356 19.8183 12.7128 19.7193C12.4901 19.6203 12.249 19.5692 12.0052 19.5692C11.7615 19.5692 11.5204 19.6203 11.2976 19.7193C11.0749 19.8183 10.8754 19.963 10.712 20.1439L9.8715 21.0698C9.6303 21.3349 9.3132 21.5192 8.96343 21.5975C8.61367 21.6759 8.24826 21.6444 7.91702 21.5075C7.58578 21.3706 7.30483 21.1348 7.11246 20.8324C6.9201 20.5299 6.82569 20.1755 6.8421 19.8175L6.90614 18.5723C6.91867 18.3288 6.87994 18.0855 6.79247 17.8579C6.705 17.6304 6.57074 17.4238 6.39837 17.2514C6.226 17.079 6.01936 16.9448 5.79182 16.8573C5.56429 16.7698 5.32092 16.7311 5.07748 16.7436L3.83228 16.8068C3.4732 16.8255 3.11712 16.7326 2.81294 16.5409C2.50875 16.3492 2.27136 16.068 2.13336 15.736C1.99537 15.404 1.96353 15.0374 2.04222 14.6865C2.1209 14.3357 2.30626 14.0178 2.57285 13.7765L3.49874 12.9404C3.67969 12.777 3.82434 12.5774 3.92335 12.3545C4.02235 12.1317 4.0735 11.8906 4.0735 11.6467C4.0735 11.4029 4.02235 11.1618 3.92335 10.9389C3.82434 10.7161 3.67969 10.5165 3.49874 10.3531L2.57285 9.51255C2.30713 9.27152 2.12233 8.9543 2.04373 8.60427C1.96512 8.25424 1.99653 7.88847 2.13366 7.55696C2.2708 7.22546 2.50697 6.94439 2.8099 6.75219C3.11282 6.55999 3.46771 6.46603 3.82605 6.48316L5.07125 6.54631C5.31516 6.55913 5.55904 6.52051 5.78704 6.43294C6.01505 6.34538 6.22209 6.21083 6.39471 6.03804C6.56733 5.86525 6.70168 5.65808 6.78902 5.42999C6.87637 5.20189 6.91476 4.95798 6.9017 4.71408L6.8421 3.46799C6.8253 3.10979 6.91943 2.75512 7.11164 2.45239C7.30385 2.14966 7.58479 1.91361 7.91612 1.77645C8.24745 1.63928 8.61304 1.60769 8.96298 1.68598C9.31293 1.76427 9.6302 1.94863 9.8715 2.2139L10.7076 3.13713Z" stroke="black" stroke-width="2" stroke-linecap="round" stroke-linejoin="round"/>
<path d="M12.0024 15.645C14.2129 15.645 16.0049 13.853 16.0049 11.6426C16.0049 9.43209 14.2129 7.64014 12.0024 7.64014C9.79195 7.64014 8 9.43209 8 11.6426C8 13.853 9.79195 15.645 12.0024 15.645Z" stroke="black" stroke-width="2" stroke-linecap="round" stroke-linejoin="round"/>
</svg>
