<svg width="22" height="23" viewBox="0 0 22 23" fill="none" xmlns="http://www.w3.org/2000/svg">
<path d="M20.6016 4.1498C21.0158 4.1498 21.3516 4.48559 21.3516 4.8998C21.3516 5.31402 21.0158 5.64981 20.6016 5.64981V4.1498ZM1.40156 5.64981C0.98735 5.64981 0.651564 5.31402 0.651564 4.8998C0.651564 4.48559 0.98735 4.1498 1.40156 4.1498V5.64981ZM14.1516 16.8998C14.1516 17.314 13.8158 17.6498 13.4016 17.6498C12.9873 17.6498 12.6516 17.314 12.6516 16.8998H14.1516ZM12.6516 9.69981C12.6516 9.28559 12.9873 8.94981 13.4016 8.94981C13.8158 8.94981 14.1516 9.28559 14.1516 9.69981H12.6516ZM9.35156 16.8998C9.35156 17.314 9.01578 17.6498 8.60156 17.6498C8.18735 17.6498 7.85156 17.314 7.85156 16.8998H9.35156ZM7.85156 9.69981C7.85156 9.28559 8.18735 8.94981 8.60156 8.94981C9.01578 8.94981 9.35156 9.28559 9.35156 9.69981H7.85156ZM6.20156 20.9498H15.8016V22.4498H6.20156V20.9498ZM4.55156 19.2998C4.55156 20.2111 5.29029 20.9498 6.20156 20.9498V22.4498C4.46187 22.4498 3.05156 21.0395 3.05156 19.2998H4.55156ZM4.55156 6.0998V19.2998H3.05156V6.0998H4.55156ZM17.4516 19.2998V6.0998H18.9516V19.2998H17.4516ZM15.8016 20.9498C16.7128 20.9498 17.4516 20.2111 17.4516 19.2998H18.9516C18.9516 21.0395 17.5413 22.4498 15.8016 22.4498V20.9498ZM5.00156 4.1498H17.0016V5.64981H5.00156V4.1498ZM17.4516 6.0998C17.4516 5.85128 17.2501 5.64981 17.0016 5.64981V4.1498C18.0785 4.1498 18.9516 5.02285 18.9516 6.0998H17.4516ZM3.05156 6.0998C3.05156 5.02285 3.92461 4.1498 5.00156 4.1498V5.64981C4.75304 5.64981 4.55156 5.85128 4.55156 6.0998H3.05156ZM20.6016 5.64981H1.40156V4.1498H20.6016V5.64981ZM13.4016 2.0498H8.60156V0.549805H13.4016V2.0498ZM8.15156 2.4998V3.6998H6.65156V2.4998H8.15156ZM8.60156 4.1498H13.4016V5.64981H8.60156V4.1498ZM13.8516 3.6998V2.4998H15.3516V3.6998H13.8516ZM13.4016 4.1498C13.6501 4.1498 13.8516 3.94833 13.8516 3.6998H15.3516C15.3516 4.77676 14.4785 5.64981 13.4016 5.64981V4.1498ZM8.15156 3.6998C8.15156 3.94833 8.35303 4.1498 8.60156 4.1498V5.64981C7.52461 5.64981 6.65156 4.77676 6.65156 3.6998H8.15156ZM8.60156 2.0498C8.35303 2.0498 8.15156 2.25128 8.15156 2.4998H6.65156C6.65156 1.42285 7.52461 0.549805 8.60156 0.549805V2.0498ZM13.4016 0.549805C14.4785 0.549805 15.3516 1.42285 15.3516 2.4998H13.8516C13.8516 2.25128 13.6501 2.0498 13.4016 2.0498V0.549805ZM12.6516 16.8998V9.69981H14.1516V16.8998H12.6516ZM7.85156 16.8998V9.69981H9.35156V16.8998H7.85156Z" fill="#FF0000"/>
</svg>
