<svg width="867" height="374" viewBox="0 0 867 374" fill="none" xmlns="http://www.w3.org/2000/svg">
<path d="M240.75 275V114H310.5C326.833 114 340.583 116.75 351.75 122.25C362.917 127.583 371.417 136.25 377.25 148.25C383.083 160.083 386 175.833 386 195.5C386 223.167 379.583 243.333 366.75 256C354.083 268.667 335.333 275 310.5 275H240.75ZM281 244H305C313.667 244 320.917 242.75 326.75 240.25C332.75 237.583 337.25 232.75 340.25 225.75C343.417 218.75 345 208.667 345 195.5C345 182.167 343.583 171.917 340.75 164.75C338.083 157.417 333.75 152.333 327.75 149.5C321.917 146.5 314.333 145 305 145H281V244ZM462.521 277.5C441.855 277.5 425.271 272.417 412.771 262.25C400.271 251.917 394.021 236.417 394.021 215.75C394.021 196.917 399.188 181.917 409.521 170.75C419.855 159.583 435.355 154 456.021 154C474.855 154 489.438 158.833 499.771 168.5C510.105 178.167 515.271 191.167 515.271 207.5V228.75H431.271C433.105 236.583 437.355 242.083 444.021 245.25C450.855 248.25 460.105 249.75 471.771 249.75C478.271 249.75 484.855 249.167 491.521 248C498.355 246.833 504.021 245.333 508.521 243.5V269.75C502.855 272.417 496.105 274.333 488.271 275.5C480.438 276.833 471.855 277.5 462.521 277.5ZM431.271 205.5H480.271V200.25C480.271 194.417 478.521 189.833 475.021 186.5C471.521 183 465.605 181.25 457.271 181.25C447.605 181.25 440.855 183.25 437.021 187.25C433.188 191.083 431.271 197.167 431.271 205.5ZM510.76 275L556.26 214.75L512.51 156.5H556.26L578.26 186.25L600.26 156.5H644.01L600.26 214.75L645.76 275H601.76L578.26 243.75L554.76 275H510.76ZM657.459 275V156.5H695.709L696.959 167.5C702.126 164.333 708.542 161.5 716.209 159C723.876 156.333 731.542 154.667 739.209 154V184.25C734.876 184.75 730.042 185.583 724.709 186.75C719.542 187.75 714.542 189 709.709 190.5C705.042 192 701.042 193.583 697.709 195.25V275H657.459ZM776.314 277.5C768.814 277.5 761.814 276.167 755.314 273.5C748.981 270.833 743.898 266.75 740.064 261.25C736.231 255.583 734.314 248.583 734.314 240.25C734.314 228.083 738.398 218.583 746.564 211.75C754.898 204.75 767.314 201.25 783.814 201.25H816.814V198.5C816.814 192.5 814.814 188.25 810.814 185.75C806.814 183.083 799.314 181.75 788.314 181.75C774.814 181.75 761.564 183.833 748.564 188V162C754.398 159.667 761.481 157.75 769.814 156.25C778.314 154.75 787.231 154 796.564 154C814.898 154 829.231 157.75 839.564 165.25C850.064 172.75 855.314 184.667 855.314 201V275H820.064L818.064 265C813.731 269 808.148 272.083 801.314 274.25C794.648 276.417 786.314 277.5 776.314 277.5ZM789.064 252.75C795.398 252.75 800.898 251.667 805.564 249.5C810.231 247.333 813.981 244.583 816.814 241.25V224.5H788.314C776.481 224.5 770.564 229.25 770.564 238.75C770.564 243.083 772.064 246.5 775.064 249C778.064 251.5 782.731 252.75 789.064 252.75Z" fill="black"/>
<rect y="102.909" width="192.188" height="178.866" rx="20" fill="#0A66C2"/>
<path d="M29.2734 158.981L40.312 148.598V158.981H29.2734Z" fill="white"/>
<path d="M43.8203 145.483H53.3536L74.6781 169.104L64.8939 179.747H43.8203V145.483Z" fill="white"/>
<path d="M112.571 133.023V179.746H69.9219L112.571 133.023Z" fill="white"/>
<path d="M116.078 129.389L161.988 130.947L116.078 176.113V129.389Z" fill="white"/>
<path d="M161.116 137.054L167.069 139.812L146.188 151.708L161.116 137.054Z" fill="white"/>
<path d="M46.8359 183.38H111.311L93.248 234.517L46.8359 183.38Z" fill="white"/>
<path d="M111.566 193.245V263.33L90.4922 251.389L111.566 193.245Z" fill="white"/>
</svg>
