<svg width="24" height="24" viewBox="0 0 24 24" fill="none" xmlns="http://www.w3.org/2000/svg">
<path d="M11.7487 5.13954C11.0744 5.13107 10.4019 5.21176 9.74876 5.37953C6.83601 6.10927 4.02637 8.38561 2.13046 10.7037C1.88399 11.0171 1.75 11.4041 1.75 11.8028C1.75 12.2014 1.88399 12.5885 2.13046 12.9018C3.99704 15.1808 6.79957 17.4972 9.75232 18.2349C10.4045 18.401 11.0757 18.4808 11.7487 18.4722C12.4228 18.481 13.0952 18.4013 13.7486 18.2349C16.7013 17.4998 19.5065 15.1826 21.3695 12.9018C21.616 12.5885 21.75 12.2014 21.75 11.8028C21.75 11.4041 21.616 11.0171 21.3695 10.7037C19.4727 8.38472 16.6587 6.10839 13.7486 5.37864C13.0954 5.21132 12.4229 5.13092 11.7487 5.13954V5.13954Z" stroke="black" stroke-width="2" stroke-linecap="round" stroke-linejoin="round"/>
<circle cx="11.7475" cy="11.5558" r="1.9428" stroke="black" stroke-width="2" stroke-linecap="round" stroke-linejoin="round"/>
</svg>
