<svg width="60" height="21" viewBox="0 0 60 21" fill="none" xmlns="http://www.w3.org/2000/svg">
<path d="M17.4604 10L13.5504 6.09002C12.7818 5.32038 12.2032 4.38224 11.8604 3.35002L11.3704 1.88002C11.1864 1.33317 10.8357 0.857718 10.3676 0.520503C9.8994 0.183287 9.33734 0.00126274 8.76038 1.82494e-05C8.39924 -0.00129736 8.04138 0.0685315 7.70724 0.205518C7.37309 0.342504 7.06919 0.543965 6.8129 0.798398C6.55661 1.05283 6.35294 1.35525 6.21353 1.6884C6.07412 2.02154 6.00169 2.37888 6.00038 2.74002V3.86002C6.00261 4.82832 6.15786 5.79018 6.46038 6.71002L6.89038 8.00002H2.12038C1.55812 8.00002 1.01889 8.22337 0.621312 8.62095C0.223735 9.01853 0.000378549 9.55776 0.000378549 10.12C0.00175879 10.4656 0.0860294 10.8058 0.246114 11.112C0.406199 11.4183 0.637426 11.6816 0.920379 11.88C0.637166 12.0734 0.40537 12.333 0.245063 12.6362C0.0847566 12.9394 0.00077077 13.2771 0.000378549 13.62C-0.00756786 14.0425 0.109749 14.4579 0.337539 14.8138C0.56533 15.1698 0.893396 15.4503 1.28038 15.62C1.10063 15.9229 1.00404 16.2678 1.00038 16.62C0.99951 17.1621 1.20632 17.6839 1.5783 18.0782C1.95028 18.4725 2.45917 18.7093 3.00038 18.74V18.88C3.00038 19.4423 3.22374 19.9815 3.62131 20.3791C4.01889 20.7767 4.55812 21 5.12038 21H12.6104C13.8524 20.9989 15.0775 20.7115 16.1904 20.16L16.5004 20H19.0004V10H17.4604ZM17.0004 18H16.0004L15.2704 18.37C14.4332 18.7816 13.5133 18.9971 12.5804 19H5.72038C5.49723 19.0089 5.27754 18.9428 5.0963 18.8123C4.91507 18.6819 4.78273 18.4945 4.72038 18.28L4.47038 17.41L3.62038 17C3.4246 16.9203 3.25914 16.7805 3.14774 16.6009C3.03635 16.4212 2.98476 16.2108 3.00038 16L3.17038 15L2.41038 14.26C2.24503 14.0985 2.14072 13.8848 2.1152 13.655C2.08967 13.4253 2.14451 13.1939 2.27038 13L2.93038 11.91L2.20038 10.81C2.15861 10.7593 2.12748 10.7006 2.10885 10.6376C2.09022 10.5745 2.08447 10.5084 2.09193 10.4431C2.0994 10.3777 2.11993 10.3146 2.1523 10.2574C2.18468 10.2002 2.22823 10.15 2.28038 10.11C2.37533 10.031 2.49711 9.99156 2.62038 10H9.67038L8.36038 6.08002C8.12151 5.36426 7.99994 4.61458 8.00038 3.86002V2.75002C8.00544 2.5527 8.08608 2.36486 8.22565 2.22529C8.36522 2.08572 8.55306 2.00508 8.75038 2.00002C8.90718 2.00014 9.06001 2.0494 9.18737 2.14088C9.31472 2.23236 9.4102 2.36146 9.46038 2.51002L10.0004 4.00002C10.4318 5.31493 11.1607 6.51263 12.1304 7.50002L16.6304 12H17.0004V18Z" fill="#404040"/>
<path d="M34.8613 15.1074V17H26.1372V5.3042H28.5859V15.1074H34.8613ZM38.9121 4.68164V6.3999H36.5796V4.68164H38.9121ZM38.9121 8.01855V17H36.5796V8.01855H38.9121ZM43.6436 13.6299V17H41.311V4.68164H43.6436V11.7373L46.8477 8.01855H49.3545L46.2002 11.5215L49.5952 17H47.0469L44.6479 12.9326L43.6436 13.6299ZM52.6997 12.9575C52.6997 13.8319 52.8602 14.4932 53.1812 14.9414C53.5076 15.3841 53.9697 15.6055 54.5674 15.6055C54.9769 15.6055 55.3117 15.5169 55.5718 15.3398C55.8374 15.1572 56.0228 14.8888 56.1279 14.5347L58.3276 14.7256C57.6912 16.3525 56.3991 17.166 54.4512 17.166C53.1009 17.166 52.0633 16.7676 51.3384 15.9707C50.6134 15.1683 50.251 14.0007 50.251 12.4678C50.251 10.9847 50.619 9.84473 51.355 9.04785C52.091 8.25098 53.1341 7.85254 54.4844 7.85254C55.7738 7.85254 56.7588 8.28141 57.4395 9.13916C58.1201 9.99137 58.4604 11.242 58.4604 12.8911V12.9575H52.6997ZM56.2026 11.4966C56.1584 10.7716 55.984 10.2293 55.6797 9.86963C55.3753 9.50439 54.9658 9.32178 54.4512 9.32178C53.9033 9.32178 53.48 9.5127 53.1812 9.89453C52.8879 10.2764 52.7329 10.8104 52.7163 11.4966H56.2026Z" fill="#404040"/>
</svg>
