<svg width="85" height="28" viewBox="0 0 85 28" fill="none" xmlns="http://www.w3.org/2000/svg">
<path d="M39.7784 21H35.1378V7.90909H39.8168C41.1335 7.90909 42.267 8.17116 43.2173 8.69531C44.1676 9.2152 44.8984 9.96307 45.4098 10.9389C45.9254 11.9148 46.1832 13.0824 46.1832 14.4418C46.1832 15.8054 45.9254 16.9773 45.4098 17.9574C44.8984 18.9375 44.1634 19.6896 43.2045 20.2138C42.25 20.7379 41.108 21 39.7784 21ZM37.9055 18.6286H39.6634C40.4815 18.6286 41.1697 18.4837 41.728 18.1939C42.2905 17.8999 42.7124 17.446 42.9936 16.8324C43.2791 16.2145 43.4219 15.4176 43.4219 14.4418C43.4219 13.4744 43.2791 12.6839 42.9936 12.0703C42.7124 11.4567 42.2926 11.005 41.7344 10.7152C41.1761 10.4254 40.4879 10.2805 39.6697 10.2805H37.9055V18.6286ZM52.4768 21.1918C51.4668 21.1918 50.5975 20.9872 49.8688 20.5781C49.1444 20.1648 48.5862 19.581 48.1941 18.8267C47.8021 18.0682 47.606 17.1712 47.606 16.1357C47.606 15.1257 47.8021 14.2393 48.1941 13.4766C48.5862 12.7138 49.138 12.1193 49.8497 11.6932C50.5656 11.267 51.405 11.054 52.3681 11.054C53.0158 11.054 53.6188 11.1584 54.1771 11.3672C54.7396 11.5717 55.2296 11.8807 55.6472 12.294C56.0691 12.7074 56.3972 13.2273 56.6316 13.8537C56.866 14.4759 56.9832 15.2045 56.9832 16.0398V16.7876H48.6927V15.1001H54.42C54.42 14.7081 54.3347 14.3608 54.1643 14.0582C53.9938 13.7557 53.7573 13.5192 53.4548 13.3487C53.1565 13.174 52.8092 13.0866 52.4129 13.0866C51.9995 13.0866 51.633 13.1825 51.3134 13.3743C50.9981 13.5618 50.7509 13.8153 50.572 14.1349C50.393 14.4503 50.3014 14.8018 50.2971 15.1896V16.794C50.2971 17.2798 50.3866 17.6996 50.5656 18.0533C50.7488 18.407 51.0066 18.6797 51.339 18.8714C51.6714 19.0632 52.0656 19.1591 52.5215 19.1591C52.8241 19.1591 53.1011 19.1165 53.3525 19.0312C53.6039 18.946 53.8191 18.8182 53.9981 18.6477C54.1771 18.4773 54.3134 18.2685 54.4072 18.0213L56.9256 18.1875C56.7978 18.7926 56.5357 19.321 56.1394 19.7727C55.7474 20.2202 55.2403 20.5696 54.6181 20.821C54.0002 21.0682 53.2864 21.1918 52.4768 21.1918ZM60.6799 11.1818L62.4825 14.6143L64.3298 11.1818H67.1231L64.2787 16.0909L67.1998 21H64.4193L62.4825 17.6058L60.5777 21H57.7652L60.6799 16.0909L57.8674 11.1818H60.6799ZM68.5603 21V11.1818H71.2002V12.8949H71.3025C71.4815 12.2855 71.7819 11.8253 72.2038 11.5142C72.6257 11.1989 73.1115 11.0412 73.6612 11.0412C73.7975 11.0412 73.9446 11.0497 74.1022 11.0668C74.2599 11.0838 74.3984 11.1072 74.5177 11.1371V13.5533C74.3899 13.5149 74.213 13.4808 73.9872 13.451C73.7613 13.4212 73.5546 13.4062 73.3671 13.4062C72.9666 13.4062 72.6086 13.4936 72.2933 13.6683C71.9822 13.8388 71.735 14.0774 71.5518 14.3842C71.3728 14.6911 71.2833 15.0447 71.2833 15.4453V21H68.5603ZM78.264 21.1854C77.6376 21.1854 77.0794 21.0767 76.5893 20.8594C76.0992 20.6378 75.7115 20.3118 75.426 19.8814C75.1447 19.4467 75.0041 18.9055 75.0041 18.2578C75.0041 17.7124 75.1042 17.2543 75.3045 16.8835C75.5048 16.5128 75.7775 16.2145 76.1227 15.9886C76.4679 15.7628 76.8599 15.5923 77.2988 15.4773C77.742 15.3622 78.2065 15.2812 78.6923 15.2344C79.2633 15.1747 79.7235 15.1193 80.073 15.0682C80.4224 15.0128 80.676 14.9318 80.8336 14.8253C80.9913 14.7187 81.0701 14.5611 81.0701 14.3523V14.3139C81.0701 13.9091 80.9423 13.5959 80.6866 13.3743C80.4352 13.1527 80.0772 13.0419 79.6127 13.0419C79.1227 13.0419 78.7328 13.1506 78.443 13.3679C78.1532 13.581 77.9615 13.8494 77.8677 14.1733L75.3492 13.9688C75.4771 13.3722 75.7285 12.8565 76.1035 12.4219C76.4785 11.983 76.9622 11.6463 77.5545 11.4119C78.1511 11.1733 78.8414 11.054 79.6255 11.054C80.171 11.054 80.693 11.1179 81.1916 11.2457C81.6944 11.3736 82.1397 11.5717 82.5275 11.8402C82.9196 12.1087 83.2285 12.4538 83.4544 12.8757C83.6802 13.2933 83.7931 13.794 83.7931 14.3778V21H81.2108V19.6385H81.134C80.9764 19.9453 80.7654 20.2159 80.5012 20.4503C80.237 20.6804 79.9196 20.8615 79.5488 20.9936C79.1781 21.1214 78.7498 21.1854 78.264 21.1854ZM79.0438 19.3061C79.4444 19.3061 79.7981 19.2273 80.1049 19.0696C80.4117 18.9077 80.6525 18.6903 80.8272 18.4176C81.0019 18.1449 81.0893 17.8359 81.0893 17.4908V16.4489C81.0041 16.5043 80.8869 16.5554 80.7377 16.6023C80.5929 16.6449 80.4288 16.6854 80.2456 16.7237C80.0623 16.7578 79.8791 16.7898 79.6958 16.8196C79.5126 16.8452 79.3464 16.8686 79.1973 16.8899C78.8777 16.9368 78.5985 17.0114 78.3599 17.1136C78.1213 17.2159 77.9359 17.3544 77.8038 17.5291C77.6717 17.6996 77.6056 17.9126 77.6056 18.1683C77.6056 18.5391 77.7399 18.8224 78.0083 19.0185C78.2811 19.2102 78.6262 19.3061 79.0438 19.3061Z" fill="black"/>
<rect width="29" height="27.4441" rx="5" fill="#0A66C2"/>
<path d="M5.14062 8.88569L6.7242 7.37109V8.88569H5.14062Z" fill="white"/>
<path d="M7.24219 6.91797H8.60982L11.669 10.3637L10.2654 11.9161H7.24219V6.91797Z" fill="white"/>
<path d="M17.0715 5.10547V11.9211H10.9531L17.0715 5.10547Z" fill="white"/>
<path d="M17.5859 4.57031L24.1722 4.7975L17.5859 11.386V4.57031Z" fill="white"/>
<path d="M24.0789 5.68276L24.9329 6.08517L21.9373 7.8204L24.0789 5.68276Z" fill="white"/>
<path d="M7.67188 12.4473H16.9214L14.3301 19.9066L7.67188 12.4473Z" fill="white"/>
<path d="M16.9294 13.8906V24.1141L13.9062 22.3723L16.9294 13.8906Z" fill="white"/>
</svg>
