<svg width="76" height="26" viewBox="0 0 76 26" fill="none" xmlns="http://www.w3.org/2000/svg">
<path d="M18.217 0.85C17.739 0.85 17.3594 1.20578 17.3594 1.67925C17.3594 2.15271 17.739 2.50849 18.217 2.50849H23.2217L12.5472 12.756C12.2062 13.0833 12.1983 13.6139 12.5495 13.9255C12.7193 14.0872 12.9442 14.1689 13.1462 14.1689C13.3492 14.1689 13.5752 14.0865 13.7453 13.9232L24.4349 3.66119V8.4717C24.4349 8.94516 24.8145 9.30094 25.2925 9.30094C25.7704 9.30094 26.15 8.94516 26.15 8.4717V1.67925C26.15 1.20578 25.7704 0.85 25.2925 0.85H18.217ZM4.06604 5.3783C2.29091 5.3783 0.85 6.75295 0.85 8.4717V22.0566C0.85 23.7753 2.29091 25.15 4.06604 25.15H18.217C19.9921 25.15 21.433 23.7753 21.433 22.0566V11.8679C21.433 11.3945 21.0534 11.0387 20.5755 11.0387C20.0975 11.0387 19.7179 11.3945 19.7179 11.8679V22.0566C19.7179 22.8511 19.0598 23.4915 18.217 23.4915H4.06604C3.22324 23.4915 2.56509 22.8511 2.56509 22.0566V8.4717C2.56509 7.67723 3.22324 7.03679 4.06604 7.03679H14.6792C15.1572 7.03679 15.5368 6.68101 15.5368 6.20755C15.5368 5.73409 15.1572 5.3783 14.6792 5.3783H4.06604Z" fill="#404040" stroke="#404040" stroke-width="0.3"/>
<path d="M44.5093 15.0981C44.5093 16.3156 44.263 17.3809 43.7705 18.2939C43.2835 19.2015 42.5946 19.9071 41.7036 20.4106C40.8182 20.9142 39.7778 21.166 38.5825 21.166C37.3595 21.166 36.3081 20.9225 35.4282 20.4355C34.5483 19.943 33.8732 19.243 33.4028 18.3354C32.9325 17.4279 32.6973 16.3488 32.6973 15.0981C32.6973 13.8475 32.9297 12.7767 33.3945 11.8857C33.8649 10.9948 34.54 10.3141 35.4199 9.84375C36.3053 9.36784 37.3651 9.12988 38.5991 9.12988C39.8387 9.12988 40.8984 9.37061 41.7783 9.85205C42.6582 10.328 43.3333 11.0114 43.8037 11.9023C44.2741 12.7933 44.5093 13.8586 44.5093 15.0981ZM42.0107 15.0981C42.0107 13.8364 41.7119 12.8486 41.1143 12.1348C40.5166 11.4154 39.6782 11.0557 38.5991 11.0557C37.5034 11.0557 36.6567 11.4126 36.0591 12.1265C35.4614 12.8348 35.1626 13.8254 35.1626 15.0981C35.1626 15.9504 35.3009 16.6864 35.5776 17.3062C35.8543 17.9259 36.2472 18.4046 36.7563 18.7422C37.271 19.0742 37.8797 19.2402 38.5825 19.2402C39.6782 19.2402 40.5221 18.8805 41.1143 18.1611C41.7119 17.4417 42.0107 16.4207 42.0107 15.0981ZM54.9185 16.4678C54.9185 17.9674 54.6169 19.1268 54.0137 19.9458C53.416 20.7593 52.5693 21.166 51.4736 21.166C50.1732 21.166 49.2656 20.6348 48.751 19.5723H48.7012C48.7344 19.7383 48.751 20.2419 48.751 21.083V24.5278H46.4185V14.0854C46.4185 13.6593 46.4129 13.2747 46.4019 12.9316C46.3908 12.5885 46.3742 12.2842 46.3521 12.0186H48.6182C48.6403 12.085 48.6569 12.1984 48.668 12.3589C48.6846 12.5138 48.6956 12.6909 48.7012 12.8901C48.7122 13.0894 48.7178 13.2858 48.7178 13.4795H48.751C49.0111 12.9261 49.3818 12.5138 49.8633 12.2427C50.3447 11.966 50.9313 11.8276 51.623 11.8276C52.6689 11.8276 53.4797 12.2316 54.0552 13.0396C54.6307 13.842 54.9185 14.9847 54.9185 16.4678ZM52.4863 16.4678C52.4863 15.4606 52.3314 14.7052 52.0215 14.2017C51.7171 13.6981 51.255 13.4463 50.6353 13.4463C50.0155 13.4463 49.5396 13.7174 49.2075 14.2598C48.881 14.8021 48.7178 15.5602 48.7178 16.5342C48.7178 17.5026 48.881 18.2524 49.2075 18.7837C49.5396 19.3094 50.0099 19.5723 50.6187 19.5723C51.244 19.5723 51.7116 19.3149 52.0215 18.8003C52.3314 18.2801 52.4863 17.5026 52.4863 16.4678ZM58.7368 16.9575C58.7368 17.8319 58.8973 18.4932 59.2183 18.9414C59.5448 19.3841 60.0068 19.6055 60.6045 19.6055C61.014 19.6055 61.3488 19.5169 61.6089 19.3398C61.8745 19.1572 62.0599 18.8888 62.165 18.5347L64.3647 18.7256C63.7284 20.3525 62.4362 21.166 60.4883 21.166C59.138 21.166 58.1004 20.7676 57.3755 19.9707C56.6506 19.1683 56.2881 18.0007 56.2881 16.4678C56.2881 14.9847 56.6561 13.8447 57.3921 13.0479C58.1281 12.251 59.1712 11.8525 60.5215 11.8525C61.8109 11.8525 62.7959 12.2814 63.4766 13.1392C64.1572 13.9914 64.4976 15.242 64.4976 16.8911V16.9575H58.7368ZM62.2397 15.4966C62.1955 14.7716 62.0212 14.2293 61.7168 13.8696C61.4124 13.5044 61.0029 13.3218 60.4883 13.3218C59.9404 13.3218 59.5171 13.5127 59.2183 13.8945C58.925 14.2764 58.77 14.8104 58.7534 15.4966H62.2397ZM68.6064 16.1855V21H66.2739V14.0273C66.2739 13.5459 66.2656 13.153 66.249 12.8486C66.238 12.5387 66.2241 12.262 66.2075 12.0186H68.4321C68.4432 12.085 68.457 12.2427 68.4736 12.4917C68.4902 12.7352 68.5041 12.987 68.5151 13.2471C68.5317 13.5016 68.54 13.687 68.54 13.8032H68.5732C68.8887 13.117 69.2843 12.619 69.7603 12.3091C70.2362 11.9992 70.8034 11.8442 71.4619 11.8442C72.4137 11.8442 73.1442 12.1375 73.6533 12.7241C74.1624 13.3107 74.417 14.1685 74.417 15.2974V21H72.0928V15.9614C72.0928 15.1701 71.96 14.578 71.6943 14.1851C71.4287 13.7922 71.0275 13.5957 70.4907 13.5957C69.9263 13.5957 69.4697 13.8392 69.1211 14.3262C68.778 14.8076 68.6064 15.4274 68.6064 16.1855Z" fill="#404040"/>
</svg>
