<svg width="16" height="12" viewBox="0 0 16 12" fill="none" xmlns="http://www.w3.org/2000/svg">
<path d="M9.3 10.85C9.1 10.65 9.004 10.4083 9.012 10.125C9.02067 9.84167 9.125 9.6 9.325 9.4L12.15 6.575H1C0.716667 6.575 0.479 6.479 0.287 6.287C0.0956668 6.09567 0 5.85833 0 5.575C0 5.29167 0.0956668 5.054 0.287 4.862C0.479 4.67067 0.716667 4.575 1 4.575H12.15L9.3 1.725C9.1 1.525 9 1.28733 9 1.012C9 0.737333 9.1 0.5 9.3 0.3C9.5 0.0999997 9.73767 0 10.013 0C10.2877 0 10.525 0.0999997 10.725 0.3L15.3 4.875C15.4 4.975 15.471 5.08333 15.513 5.2C15.5543 5.31667 15.575 5.44167 15.575 5.575C15.575 5.70833 15.5543 5.83333 15.513 5.95C15.471 6.06667 15.4 6.175 15.3 6.275L10.7 10.875C10.5167 11.0583 10.2877 11.15 10.013 11.15C9.73767 11.15 9.5 11.05 9.3 10.85Z" fill="white"/>
</svg>
