<svg width="72" height="64" viewBox="0 0 72 64" fill="none" xmlns="http://www.w3.org/2000/svg">
<path d="M72 13C72 14.6569 70.6569 16 69 16H3C1.34315 16 0 14.6569 0 13V3C0 1.34315 1.34315 0 3 0H69C70.6569 0 72 1.34315 72 3V13ZM72 27C72 25.3431 70.6569 24 69 24H3C1.34315 24 0 25.3431 0 27V37C0 38.6569 1.34315 40 3 40H69C70.6569 40 72 38.6569 72 37V27ZM72 51C72 49.3431 70.6569 48 69 48H3C1.34315 48 0 49.3431 0 51V61C0 62.6569 1.34315 64 3 64H69C70.6569 64 72 62.6569 72 61V51Z" fill="#3D3D3D"/>
</svg>
